# xmcd
#
# Track frame offsets: 
#        150
#        5674
#        17712
#        38268
#        50918
#        64633
#        83654
#        94433
#        111746
#        139189
#        152324
#        161007
#
# Disc length: 2467 seconds
#
# Revision: 3
# Processed by: cddbd v1.5.2PL0 Copyright (c) Steve Scherf et al.
# Submitted via: ExactAudioCopy v1.0b1
#
DISCID=9709a10c
DTITLE=Ashtray Hearts - Old Numbers
DYEAR=2002
DGENRE=Apartment Music
TTITLE0=Amusement Park
TTITLE1=Disaster
TTITLE2=The One You're Closest To
TTITLE3=Still Shaking
TTITLE4=Queen South
TTITLE5=Anyone's Guess
TTITLE6=Bryn Mawr
TTITLE7=Trestle
TTITLE8=Country Bar
TTITLE9=Spain
TTITLE10=Southern Wedding
TTITLE11=Watching Me Try
EXTD=YEAR: 2002 ID3G: 123
EXTT0=
EXTT1=
EXTT2=
EXTT3=
EXTT4=
EXTT5=
EXTT6=
EXTT7=
EXTT8=
EXTT9=
EXTT10=
EXTT11=
PLAYORDER=
